<?xml version="1.0" encoding="UTF-8" standalone="no"?><!DOCTYPE svg PUBLIC "-//W3C//DTD SVG 1.1//EN" "http://www.w3.org/Graphics/SVG/1.1/DTD/svg11.dtd"><!-- Generated by graphviz version 2.40.1 (20161225.0304)
 --><!-- Title: G Pages: 1 --><svg xmlns="http://www.w3.org/2000/svg" xmlns:xlink="http://www.w3.org/1999/xlink" width="398pt" height="644pt" viewBox="0.00 0.00 397.63 643.80">
<g id="graph0" class="graph" transform="scale(1 1) rotate(0) translate(4 639.8)">
<title>G</title>
<polygon fill="#ffffff" stroke="transparent" points="-4,4 -4,-639.8 393.6295,-639.8 393.6295,4 -4,4"/>
<!-- 1. Define the Problem -->
<g id="node1" class="node">
<title>1. Define the Problem</title>
<g id="a_node1"><a xlink:title="Understand the problem thoroughly and express it in clear, concise terms.">
<polygon fill="#add8e6" stroke="#add8e6" points="304.0318,-635.8 164.7684,-635.8 164.7684,-599.8 304.0318,-599.8 304.0318,-635.8"/>
<text text-anchor="middle" x="234.4001" y="-613.6" font-family="Times,serif" font-size="14.00" fill="#000000">1. Define the Problem</text>
</a>
</g>
</g>
<!-- 2. Analyze the Problem -->
<g id="node2" class="node">
<title>2. Analyze the Problem</title>
<g id="a_node2"><a xlink:title="Break down the problem into smaller, manageable parts. This is often referred to as decomposition.">
<polygon fill="#add8e6" stroke="#add8e6" points="308.5854,-562.8 160.2148,-562.8 160.2148,-526.8 308.5854,-526.8 308.5854,-562.8"/>
<text text-anchor="middle" x="234.4001" y="-540.6" font-family="Times,serif" font-size="14.00" fill="#000000">2. Analyze the Problem</text>
</a>
</g>
</g>
<!-- 1. Define the Problem&#45;&gt;2. Analyze the Problem -->
<g id="edge1" class="edge">
<title>1. Define the Problem-&gt;2. Analyze the Problem</title>
<path fill="none" stroke="#000000" d="M234.4001,-599.7551C234.4001,-591.6828 234.4001,-581.9764 234.4001,-572.9817"/>
<polygon fill="#000000" stroke="#000000" points="237.9002,-572.8903 234.4001,-562.8904 230.9002,-572.8904 237.9002,-572.8903"/>
</g>
<!-- 3. Formulate a Plan -->
<g id="node3" class="node">
<title>3. Formulate a Plan</title>
<g id="a_node3"><a xlink:title="Decide on how to tackle each part of the problem. This involves considering what tools, algorithms, or data structures you might use.">
<polygon fill="#add8e6" stroke="#add8e6" points="297.0472,-489.8 171.753,-489.8 171.753,-453.8 297.0472,-453.8 297.0472,-489.8"/>
<text text-anchor="middle" x="234.4001" y="-467.6" font-family="Times,serif" font-size="14.00" fill="#000000">3. Formulate a Plan</text>
</a>
</g>
</g>
<!-- 2. Analyze the Problem&#45;&gt;3. Formulate a Plan -->
<g id="edge2" class="edge">
<title>2. Analyze the Problem-&gt;3. Formulate a Plan</title>
<path fill="none" stroke="#000000" d="M234.4001,-526.7551C234.4001,-518.6828 234.4001,-508.9764 234.4001,-499.9817"/>
<polygon fill="#000000" stroke="#000000" points="237.9002,-499.8903 234.4001,-489.8904 230.9002,-499.8904 237.9002,-499.8903"/>
</g>
<!-- 4. Write a Failing Test -->
<g id="node4" class="node">
<title>4. Write a Failing Test</title>
<g id="a_node4"><a xlink:title="Before you start writing code to solve the problem, write a test that will pass when the problem is solved. This is the 'Red' phase of the Red-Green-Refactor cycle in TDD.">
<polygon fill="#add8e6" stroke="#add8e6" points="305.7575,-416.8 163.0427,-416.8 163.0427,-380.8 305.7575,-380.8 305.7575,-416.8"/>
<text text-anchor="middle" x="234.4001" y="-394.6" font-family="Times,serif" font-size="14.00" fill="#000000">4. Write a Failing Test</text>
</a>
</g>
</g>
<!-- 3. Formulate a Plan&#45;&gt;4. Write a Failing Test -->
<g id="edge3" class="edge">
<title>3. Formulate a Plan-&gt;4. Write a Failing Test</title>
<path fill="none" stroke="#000000" d="M234.4001,-453.7551C234.4001,-445.6828 234.4001,-435.9764 234.4001,-426.9817"/>
<polygon fill="#000000" stroke="#000000" points="237.9002,-426.8903 234.4001,-416.8904 230.9002,-426.8904 237.9002,-426.8903"/>
</g>
<!-- 5. Implement the Minimum Code to Pass the Test -->
<g id="node5" class="node">
<title>5. Implement the Minimum Code to Pass the Test</title>
<g id="a_node5"><a xlink:title="Write just enough code to make the test pass. This is the 'Green' phase.">
<polygon fill="#add8e6" stroke="#add8e6" points="294.7004,-343.8 .0998,-343.8 .0998,-307.8 294.7004,-307.8 294.7004,-343.8"/>
<text text-anchor="middle" x="147.4001" y="-321.6" font-family="Times,serif" font-size="14.00" fill="#000000">5. Implement the Minimum Code to Pass the Test</text>
</a>
</g>
</g>
<!-- 4. Write a Failing Test&#45;&gt;5. Implement the Minimum Code to Pass the Test -->
<g id="edge4" class="edge">
<title>4. Write a Failing Test-&gt;5. Implement the Minimum Code to Pass the Test</title>
<path fill="none" stroke="#000000" d="M212.8945,-380.7551C202.0193,-371.6299 188.6553,-360.4165 176.8414,-350.5036"/>
<polygon fill="#000000" stroke="#000000" points="178.8701,-347.637 168.9598,-343.8904 174.3706,-352.9994 178.8701,-347.637"/>
</g>
<!-- 6. Refactor -->
<g id="node6" class="node">
<title>6. Refactor</title>
<g id="a_node6"><a xlink:title="Now that your code is working, improve it without changing its behavior. Make it more readable, remove duplication, etc. This is the 'Refactor' phase.">
<polygon fill="#add8e6" stroke="#add8e6" points="192.5925,-270.8 114.2077,-270.8 114.2077,-234.8 192.5925,-234.8 192.5925,-270.8"/>
<text text-anchor="middle" x="153.4001" y="-248.6" font-family="Times,serif" font-size="14.00" fill="#000000">6. Refactor</text>
</a>
</g>
</g>
<!-- 5. Implement the Minimum Code to Pass the Test&#45;&gt;6. Refactor -->
<g id="edge5" class="edge">
<title>5. Implement the Minimum Code to Pass the Test-&gt;6. Refactor</title>
<path fill="none" stroke="#000000" d="M148.8832,-307.7551C149.5467,-299.6828 150.3445,-289.9764 151.0838,-280.9817"/>
<polygon fill="#000000" stroke="#000000" points="154.5822,-281.1435 151.9132,-270.8904 147.6057,-280.57 154.5822,-281.1435"/>
</g>
<!-- 7. Review and Reflect -->
<g id="node7" class="node">
<title>7. Review and Reflect</title>
<g id="a_node7"><a xlink:title="Take some time to review your code. Could it be more efficient? More readable? Is there anything you could learn from this problem that could be applied to future problems?">
<polygon fill="#add8e6" stroke="#add8e6" points="248.8005,-182 107.9997,-182 107.9997,-146 248.8005,-146 248.8005,-182"/>
<text text-anchor="middle" x="178.4001" y="-159.8" font-family="Times,serif" font-size="14.00" fill="#000000">7. Review and Reflect</text>
</a>
</g>
</g>
<!-- 6. Refactor&#45;&gt;7. Review and Reflect -->
<g id="edge6" class="edge">
<title>6. Refactor-&gt;7. Review and Reflect</title>
<path fill="none" stroke="#000000" d="M158.5801,-234.4006C162.022,-222.175 166.6071,-205.8887 170.5003,-192.0599"/>
<polygon fill="#000000" stroke="#000000" points="173.9713,-192.6463 173.3123,-182.072 167.2332,-190.7493 173.9713,-192.6463"/>
</g>
<!-- 8. Document the Solution -->
<g id="node8" class="node">
<title>8. Document the Solution</title>
<g id="a_node8"><a xlink:title="Good documentation helps others understand your code and can also be useful for future you. Document your process, the decisions you made, any issues you encountered, and how you solved them.">
<polygon fill="#add8e6" stroke="#add8e6" points="293.2767,-109 133.5235,-109 133.5235,-73 293.2767,-73 293.2767,-109"/>
<text text-anchor="middle" x="213.4001" y="-86.8" font-family="Times,serif" font-size="14.00" fill="#000000">8. Document the Solution</text>
</a>
</g>
</g>
<!-- 7. Review and Reflect&#45;&gt;8. Document the Solution -->
<g id="edge7" class="edge">
<title>7. Review and Reflect-&gt;8. Document the Solution</title>
<path fill="none" stroke="#000000" d="M187.0518,-145.9551C191.0482,-137.6196 195.8802,-127.5416 200.3091,-118.3042"/>
<polygon fill="#000000" stroke="#000000" points="203.5593,-119.6207 204.7266,-109.0904 197.2473,-116.5944 203.5593,-119.6207"/>
</g>
<!-- 9. Iterate -->
<g id="node9" class="node">
<title>9. Iterate</title>
<g id="a_node9"><a xlink:title="If necessary, return to step 4 with new or remaining problems. This process is often iterative, with each cycle improving upon the previous solution.">
<polygon fill="#add8e6" stroke="#add8e6" points="300.1468,-36 234.6534,-36 234.6534,0 300.1468,0 300.1468,-36"/>
<text text-anchor="middle" x="267.4001" y="-13.8" font-family="Times,serif" font-size="14.00" fill="#000000">9. Iterate</text>
</a>
</g>
</g>
<!-- 8. Document the Solution&#45;&gt;9. Iterate -->
<g id="edge8" class="edge">
<title>8. Document the Solution-&gt;9. Iterate</title>
<path fill="none" stroke="#000000" d="M226.7484,-72.9551C233.174,-64.2686 240.9994,-53.6898 248.0622,-44.142"/>
<polygon fill="#000000" stroke="#000000" points="250.885,-46.2113 254.0182,-36.0904 245.2573,-42.0484 250.885,-46.2113"/>
</g>
<!-- 9. Iterate&#45;&gt;4. Write a Failing Test -->
<g id="edge9" class="edge">
<title>9. Iterate-&gt;4. Write a Failing Test</title>
<path fill="none" stroke="#000000" d="M291.684,-36.2738C306.4177,-49.5999 322.4001,-69.102 322.4001,-91 322.4001,-325.8 322.4001,-325.8 322.4001,-325.8 322.4001,-347.2941 306.6563,-363.6655 288.4871,-375.4023"/>
<polygon fill="#000000" stroke="#000000" points="286.2332,-372.6708 279.4313,-380.7938 289.8142,-378.6855 286.2332,-372.6708"/>
<text text-anchor="middle" x="356.0148" y="-204.2" font-family="Times,serif" font-size="14.00" fill="#000000">If necessary</text>
</g>
</g>
</svg>